REM DIRINDEX 1\4,1\2\5,1\2\6,1\3\7,1\3\8
REM DIRNAME cjc124,folder01,folder02,folder03,folder04,folder05,folder06,folder07
TITLE ""
FILE "020_Day10_Check3_Sentences.mp3" MP3
  TRACK 01 AUDIO
    TITLE "0:"
    INDEX 01 00:00:00
  TRACK 02 AUDIO
    TITLE "4:cjc124_0628"
    INDEX 01 00:00:25
  TRACK 03 AUDIO
    TITLE "0:"
    INDEX 01 00:01:52
  TRACK 04 AUDIO
    TITLE "7:cjc124_0629"
    INDEX 01 00:02:24
  TRACK 05 AUDIO
    TITLE "0:"
    INDEX 01 00:07:19
  TRACK 06 AUDIO
    TITLE "8:cjc124_0630"
    INDEX 01 00:07:37
  TRACK 07 AUDIO
    TITLE "0:"
    INDEX 01 00:10:53
  TRACK 08 AUDIO
    TITLE "7:cjc124_0631"
    INDEX 01 00:11:13
  TRACK 09 AUDIO
    TITLE "0:"
    INDEX 01 00:14:31
  TRACK 10 AUDIO
    TITLE "8:cjc124_0632"
    INDEX 01 00:14:47
  TRACK 11 AUDIO
    TITLE "0:"
    INDEX 01 00:17:37
  TRACK 12 AUDIO
    TITLE "7:cjc124_0633"
    INDEX 01 00:17:72
  TRACK 13 AUDIO
    TITLE "0:"
    INDEX 01 00:20:55
  TRACK 14 AUDIO
    TITLE "8:cjc124_0634"
    INDEX 01 00:21:02
  TRACK 15 AUDIO
    TITLE "0:"
    INDEX 01 00:23:73
  TRACK 16 AUDIO
    TITLE "7:cjc124_0635"
    INDEX 01 00:24:33
  TRACK 17 AUDIO
    TITLE "0:"
    INDEX 01 00:26:64
  TRACK 18 AUDIO
    TITLE "8:cjc124_0636"
    INDEX 01 00:27:04
  TRACK 19 AUDIO
    TITLE "0:"
    INDEX 01 00:29:34
  TRACK 20 AUDIO
    TITLE "7:cjc124_0637"
    INDEX 01 00:29:72
  TRACK 21 AUDIO
    TITLE "0:"
    INDEX 01 00:32:62
  TRACK 22 AUDIO
    TITLE "8:cjc124_0638"
    INDEX 01 00:33:03
  TRACK 23 AUDIO
    TITLE "0:"
    INDEX 01 00:35:25
  TRACK 24 AUDIO
    TITLE "7:cjc124_0639"
    INDEX 01 00:35:61
  TRACK 25 AUDIO
    TITLE "0:"
    INDEX 01 00:38:55
  TRACK 26 AUDIO
    TITLE "8:cjc124_0640"
    INDEX 01 00:39:03
  TRACK 27 AUDIO
    TITLE "0:"
    INDEX 01 00:42:14
  TRACK 28 AUDIO
    TITLE "7:cjc124_0641"
    INDEX 01 00:42:51
  TRACK 29 AUDIO
    TITLE "0:"
    INDEX 01 00:46:07
  TRACK 30 AUDIO
    TITLE "8:cjc124_0642"
    INDEX 01 00:46:23
  TRACK 31 AUDIO
    TITLE "0:"
    INDEX 01 00:49:61
  TRACK 32 AUDIO
    TITLE "7:cjc124_0643"
    INDEX 01 00:50:25
  TRACK 33 AUDIO
    TITLE "0:"
    INDEX 01 00:53:58
  TRACK 34 AUDIO
    TITLE "8:cjc124_0644"
    INDEX 01 00:54:13
  TRACK 35 AUDIO
    TITLE "0:"
    INDEX 01 00:57:17
  TRACK 36 AUDIO
    TITLE "7:cjc124_0645"
    INDEX 01 00:57:54
  TRACK 37 AUDIO
    TITLE "0:"
    INDEX 01 01:00:29
  TRACK 38 AUDIO
    TITLE "8:cjc124_0646"
    INDEX 01 01:00:41
  TRACK 39 AUDIO
    TITLE "0:"
    INDEX 01 01:02:40
  TRACK 40 AUDIO
    TITLE "7:cjc124_0647"
    INDEX 01 01:03:02
  TRACK 41 AUDIO
    TITLE "0:"
    INDEX 01 01:06:34
  TRACK 42 AUDIO
    TITLE "8:cjc124_0648"
    INDEX 01 01:06:47
  TRACK 43 AUDIO
    TITLE "0:"
    INDEX 01 01:09:14
  TRACK 44 AUDIO
    TITLE "7:cjc124_0649"
    INDEX 01 01:09:50
  TRACK 45 AUDIO
    TITLE "0:"
    INDEX 01 01:13:16
  TRACK 46 AUDIO
    TITLE "8:cjc124_0650"
    INDEX 01 01:13:30
  TRACK 47 AUDIO
    TITLE "0:"
    INDEX 01 01:15:74
  TRACK 48 AUDIO
    TITLE "7:cjc124_0651"
    INDEX 01 01:16:36
  TRACK 49 AUDIO
    TITLE "0:"
    INDEX 01 01:19:74
  TRACK 50 AUDIO
    TITLE "8:cjc124_0652"
    INDEX 01 01:20:24
  TRACK 51 AUDIO
    TITLE "0:"
    INDEX 01 01:23:34
  TRACK 52 AUDIO
    TITLE "7:cjc124_0653"
    INDEX 01 01:23:73
  TRACK 53 AUDIO
    TITLE "0:"
    INDEX 01 01:28:55
  TRACK 54 AUDIO
    TITLE "8:cjc124_0654"
    INDEX 01 01:28:72
  TRACK 55 AUDIO
    TITLE "0:"
    INDEX 01 01:32:47
  TRACK 56 AUDIO
    TITLE "7:cjc124_0655"
    INDEX 01 01:33:09
  TRACK 57 AUDIO
    TITLE "0:"
    INDEX 01 01:38:28
  TRACK 58 AUDIO
    TITLE "8:cjc124_0656"
    INDEX 01 01:38:45
  TRACK 59 AUDIO
    TITLE "0:"
    INDEX 01 01:42:41
  TRACK 60 AUDIO
    TITLE "7:cjc124_0657"
    INDEX 01 01:43:03
  TRACK 61 AUDIO
    TITLE "0:"
    INDEX 01 01:46:70
  TRACK 62 AUDIO
    TITLE "8:cjc124_0658"
    INDEX 01 01:47:15
  TRACK 63 AUDIO
    TITLE "0:"
    INDEX 01 01:50:43
  TRACK 64 AUDIO
    TITLE "7:cjc124_0659"
    INDEX 01 01:51:03
  TRACK 65 AUDIO
    TITLE "0:"
    INDEX 01 01:54:44
  TRACK 66 AUDIO
    TITLE "8:cjc124_0660"
    INDEX 01 01:54:58
  TRACK 67 AUDIO
    TITLE "0:"
    INDEX 01 01:57:02
